<?xml version="1.0" encoding="utf-8"?>
<!-- Generator: Adobe Illustrator 28.0.0, SVG Export Plug-In . SVG Version: 6.00 Build 0)  -->
<svg version="1.1" id="_x30_" xmlns="http://www.w3.org/2000/svg" xmlns:xlink="http://www.w3.org/1999/xlink" x="0px" y="0px"
	 viewBox="0 0 2126 2126" style="enable-background:new 0 0 2126 2126;" xml:space="preserve">
<style type="text/css">
	.st0{fill:none;stroke:#000000;stroke-linecap:round;stroke-linejoin:round;}
</style>
<g>
	<rect x="953.5" y="1476.5" class="st0" width="1020.5" height="453.5"/>
	<path class="st0" d="M1590,1803.7c19.9,19.9,45.2,33.4,72.8,38.9c27.6,5.5,56.1,2.7,82.1-8.1c26-10.8,48.2-29,63.8-52.4
		c15.6-23.4,24-50.9,24-79c0-28.1-8.3-55.6-24-79c-15.6-23.4-37.8-41.6-63.8-52.4c-26-10.8-54.5-13.6-82.1-8.1
		c-27.6,5.5-52.9,19-72.8,38.9c-33.5,33.5-78.9,52.3-126.3,52.3c-47.4,0-92.8-18.8-126.3-52.3c-19.9-19.9-45.2-33.4-72.8-38.9
		c-27.6-5.5-56.1-2.7-82.1,8.1c-26,10.8-48.2,29-63.8,52.4c-15.6,23.4-24,50.9-24,79c0,28.1,8.3,55.6,24,79
		c15.6,23.4,37.8,41.6,63.8,52.4c26,10.8,54.5,13.6,82.1,8.1c27.6-5.5,52.9-19,72.8-38.9c33.5-33.5,78.9-52.3,126.3-52.3
		C1511.1,1751.5,1556.5,1770.3,1590,1803.7z"/>
	<path class="st0" d="M1935.4,1879.9c1.7,1.7,4.4,1.7,6,0c1.7-1.7,1.7-4.4,0-6c0-24.3,0-48.7,0-73c1.7-1.7,1.7-4.4,0-6
		c-1.7-1.7-4.4-1.7-6,0c-5.4,0-10.9,0-16.3,0c-1.7-1.7-4.4-1.7-6,0s-1.7,4.4,0,6c0,24.3,0,48.7,0,73c-1.7,1.7-1.7,4.4,0,6
		s4.4,1.7,6,0C1924.5,1879.9,1929.9,1879.9,1935.4,1879.9z"/>
	<path class="st0" d="M1913,1605.6c0-24.3,0-48.7,0-73c-1.7-1.7-1.7-4.4,0-6c1.7-1.7,4.4-1.7,6,0c5.4,0,10.9,0,16.3,0
		c1.7-1.7,4.4-1.7,6,0c1.7,1.7,1.7,4.4,0,6c0,24.3,0,48.7,0,73c1.7,1.7,1.7,4.4,0,6c-1.7,1.7-4.4,1.7-6,0c-5.4,0-10.9,0-16.3,0
		c-1.7,1.7-4.4,1.7-6,0C1911.4,1610,1911.4,1607.3,1913,1605.6z"/>
	<path class="st0" d="M1014.5,1800.8c0,24.3,0,48.7,0,73c1.7,1.7,1.7,4.4,0,6c-1.7,1.7-4.4,1.7-6,0c-5.4,0-10.9,0-16.3,0
		c-1.7,1.7-4.4,1.7-6,0s-1.7-4.4,0-6c0-24.3,0-48.7,0-73c-1.7-1.7-1.7-4.4,0-6s4.4-1.7,6,0c5.4,0,10.9,0,16.3,0c1.7-1.7,4.4-1.7,6,0
		C1016.2,1796.5,1016.2,1799.2,1014.5,1800.8z"/>
	<path class="st0" d="M1014.5,1532.6c1.7-1.7,1.7-4.4,0-6c-1.7-1.7-4.4-1.7-6,0c-5.4,0-10.9,0-16.3,0c-1.7-1.7-4.4-1.7-6,0
		c-1.7,1.7-1.7,4.4,0,6c0,24.3,0,48.7,0,73c-1.7,1.7-1.7,4.4,0,6c1.7,1.7,4.4,1.7,6,0c5.4,0,10.9,0,16.3,0c1.7,1.7,4.4,1.7,6,0
		c1.7-1.7,1.7-4.4,0-6C1014.5,1581.3,1014.5,1556.9,1014.5,1532.6z"/>
	<path class="st0" d="M648.2,246.1c0,28.3,0,56.7,0,85c7.4,0,14.9,0,22.3,0c1.7-1.7,4.4-1.7,6,0c1.7,1.7,1.7,4.4,0,6
		c0,57.1,0,114.1,0,171.2c1.7,1.7,1.7,4.4,0,6c-1.7,1.7-4.4,1.7-6,0c-7.4,0-14.9,0-22.3,0c0,28.3,0,56.7,0,85c7.4,0,14.9,0,22.3,0
		c1.7-1.7,4.4-1.7,6,0c1.7,1.7,1.7,4.4,0,6c0,14.7,0,29.4,0,44.1c434.6,94.5,869.3,189,1303.9,283.5c0-50,0-100,0-150
		c-70.4,0-138-28-187.8-77.8c-49.8-49.8-77.8-117.3-77.8-187.8c0-70.4,28-138,77.8-187.8c49.8-49.8,117.3-77.8,187.8-77.8
		c0-18.6,0-37.3,0-55.9c-434.6,0-869.3,0-1303.9,0c0,14.7,0,29.4,0,44.1c1.7,1.7,1.7,4.4,0,6c-1.7,1.7-4.4,1.7-6,0
		C663.1,246.1,655.6,246.1,648.2,246.1z"/>
	<path class="st0" d="M1413.5,257.7c1.7-1.7,1.7-4.4,0-6c-1.7-1.7-4.4-1.7-6,0c-5.4,0-10.9,0-16.3,0c-1.7-1.7-4.4-1.7-6,0
		c-1.7,1.7-1.7,4.4,0,6c0,21.7,0,43.5,0,65.2c-1.7,1.7-1.7,4.4,0,6c1.7,1.7,4.4,1.7,6,0c5.4,0,10.9,0,16.3,0c1.7,1.7,4.4,1.7,6,0
		c1.7-1.7,1.7-4.4,0-6C1413.5,301.2,1413.5,279.4,1413.5,257.7z"/>
	<path class="st0" d="M1391.2,516.6c-1.7-1.7-4.4-1.7-6,0c-1.7,1.7-1.7,4.4,0,6c0,21.7,0,43.5,0,65.2c-1.7,1.7-1.7,4.4,0,6
		c1.7,1.7,4.4,1.7,6,0c5.4,0,10.9,0,16.3,0c1.7,1.7,4.4,1.7,6,0c1.7-1.7,1.7-4.4,0-6c0-21.7,0-43.5,0-65.2c1.7-1.7,1.7-4.4,0-6
		c-1.7-1.7-4.4-1.7-6,0C1402.1,516.6,1396.6,516.6,1391.2,516.6z"/>
	<path class="st0" d="M460.1,227.2c-58.5,0-117.1,0-175.6,0c-1.7,1.7-4.4,1.7-6,0c-1.7-1.7-1.7-4.4,0-6c0-7.8,0-15.6,0-23.5
		c-25.8,0-51.5,0-77.3,0c0,7.8,0,15.6,0,23.5c1.7,1.7,1.7,4.4,0,6c-1.7,1.7-4.4,1.7-6,0c-16.6,0-33.1,0-49.7,0
		c0,299.9,0,599.7,0,899.6c16.6,0,33.1,0,49.7,0c1.7-1.7,4.4-1.7,6,0c1.7,1.7,1.7,4.4,0,6c0,7.8,0,15.6,0,23.5c25.8,0,51.5,0,77.3,0
		c0-7.8,0-15.6,0-23.5c-1.7-1.7-1.7-4.4,0-6c1.7-1.7,4.4-1.7,6,0c58.5,0,117.1,0,175.6,0c1.7-1.7,4.4-1.7,6,0c1.7,1.7,1.7,4.4,0,6
		c0,7.8,0,15.6,0,23.5c25.8,0,51.5,0,77.3,0c0-7.8,0-15.6,0-23.5c-1.7-1.7-1.7-4.4,0-6c1.7-1.7,4.4-1.7,6,0c16.6,0,33.1,0,49.7,0
		c0-299.9,0-599.7,0-899.6c-16.6,0-33.1,0-49.7,0c-1.7,1.7-4.4,1.7-6,0c-1.7-1.7-1.7-4.4,0-6c0-7.8,0-15.6,0-23.5
		c-25.8,0-51.5,0-77.3,0c0,7.8,0,15.6,0,23.5c1.7,1.7,1.7,4.4,0,6C464.4,228.9,461.8,228.9,460.1,227.2z"/>
	<path class="st0" d="M513.9,449.7c0-37.6-14.9-73.6-41.5-100.2c-26.6-26.6-62.6-41.5-100.2-41.5c-37.6,0-73.6,14.9-100.2,41.5
		c-26.6,26.6-41.5,62.6-41.5,100.2c0,151.5,0,303,0,454.6c0,37.6,14.9,73.6,41.5,100.2c26.6,26.6,62.6,41.5,100.2,41.5
		c37.6,0,73.6-14.9,100.2-41.5c26.6-26.6,41.5-62.6,41.5-100.2C513.9,752.8,513.9,601.2,513.9,449.7z"/>
	<path class="st0" d="M1979.8,1387c0-28.3,0-56.7,0-85c-7.4,0-14.9,0-22.3,0c-1.7,1.7-4.4,1.7-6,0s-1.7-4.4,0-6
		c0-57.1,0-114.1,0-171.2c-1.7-1.7-1.7-4.4,0-6s4.4-1.7,6,0c7.4,0,14.9,0,22.3,0c0-28.3,0-56.7,0-85c-7.4,0-14.9,0-22.3,0
		c-1.7,1.7-4.4,1.7-6,0c-1.7-1.7-1.7-4.4,0-6c0-14.7,0-29.4,0-44.1c-434.6-94.5-869.3-189-1303.9-283.5c0,50,0,100,0,150
		c70.4,0,138,28,187.8,77.8c49.8,49.8,77.8,117.3,77.8,187.8c0,70.4-28,138-77.8,187.8c-49.8,49.8-117.3,77.8-187.8,77.8
		c0,18.6,0,37.3,0,55.9c434.6,0,869.3,0,1303.9,0c0-14.7,0-29.4,0-44.1c-1.7-1.7-1.7-4.4,0-6s4.4-1.7,6,0
		C1964.9,1387,1972.4,1387,1979.8,1387z"/>
	<path class="st0" d="M1214.5,1375.4c-1.7,1.7-1.7,4.4,0,6s4.4,1.7,6,0c5.4,0,10.9,0,16.3,0c1.7,1.7,4.4,1.7,6,0
		c1.7-1.7,1.7-4.4,0-6c0-21.7,0-43.5,0-65.2c1.7-1.7,1.7-4.4,0-6c-1.7-1.7-4.4-1.7-6,0c-5.4,0-10.9,0-16.3,0c-1.7-1.7-4.4-1.7-6,0
		c-1.7,1.7-1.7,4.4,0,6C1214.5,1331.9,1214.5,1353.7,1214.5,1375.4z"/>
	<path class="st0" d="M1236.8,1116.5c1.7,1.7,4.4,1.7,6,0c1.7-1.7,1.7-4.4,0-6c0-21.7,0-43.5,0-65.2c1.7-1.7,1.7-4.4,0-6
		c-1.7-1.7-4.4-1.7-6,0c-5.4,0-10.9,0-16.3,0c-1.7-1.7-4.4-1.7-6,0c-1.7,1.7-1.7,4.4,0,6c0,21.7,0,43.5,0,65.2c-1.7,1.7-1.7,4.4,0,6
		s4.4,1.7,6,0C1225.9,1116.5,1231.4,1116.5,1236.8,1116.5z"/>
</g>
</svg>
